<svg xmlns="http://www.w3.org/2000/svg" version="1.1" width="600px" height="600px" viewBox="0 0 200 200" style="overflow:hidden!important;"><g id="svga-group-wrapper"><g id="svga-group-backs-single"></g><g id="svga-group-humanwrap-move" transform="matrix(1,0,0,1,0,0)"><g id="svga-group-humanwrap"><g id="svga-group-hair-back-move" transform="matrix(1,0,0,1,0,0)"><g id="svga-group-hair-back"></g></g><g id="svga-group-humanbody-back"><path id="SvgjsPath19481" d="M180.8 184.9c-2.3-3.4-38.9-17.8-38.9-17.8l-13.4-5.2-5.6-68.8H76.8L71.3 162l-13.4 5.2S21.4 181.6 19 185c-2.3 3.4-3.3 14.9-3.3 14.9V219h168.5v-19.2c-.1.1-1-11.5-3.4-14.9z" fill="#fec6ae" stroke-width="none" opacity="1" stroke="none"></path></g><g id="svga-group-chinshadow-single"><path id="SvgjsPath19477" d="M94.3 163.2s17.4.7 30.2-15c.96-1.2 1.83-2.36 2.64-3.5l-4.2-51.6H76.82l-4.96 62.4c11.08 8.16 22.44 7.7 22.44 7.7z" fill="#df8f6c" stroke-width="none" opacity="1" stroke="none"></path></g><g id="svga-group-humanbody-front"><path id="SvgjsPath19482" d="M184.5 219c-.1-6.4-.1-12.8-.1-19.2l-.3-.1s.1-.1.2 0c.1 0 .1.1.1.1v-.4l-.1-.5-.1-.9-.2-1.9c-.2-1.3-.4-2.5-.6-3.8-.2-1.3-.5-2.5-.9-3.8-.4-1.2-.8-2.5-1.5-3.6-.8-.9-1.9-1.5-2.9-2.1-1-.6-2.1-1.1-3.2-1.7-2.1-1.1-4.3-2.1-6.5-3.1-4.4-2-8.7-3.9-13.1-5.7-4.4-1.9-8.8-3.7-13.2-5.5l-13-5.2-1.2-16.9c-.4-5.7-.9-11.5-1.3-17.2l-1.3-17.2-1.5-17.3-.1-.8h-.8c-7.7 0-15.4.1-23.1.1l-23.1.2h-.5v.5L75 110.2l-1.3 17.2c-.8 11.4-1.8 22.8-2.8 34.2-5.6 2.1-11.2 4.2-16.7 6.4-5.6 2.2-11.2 4.5-16.8 6.9-2.8 1.2-5.6 2.4-8.3 3.6-2.8 1.3-5.5 2.5-8.2 4.1-.7.4-1.3.8-2 1.4-.2.1-.4.4-.5.6l-.3.6c-.2.4-.4.7-.5 1.1-.6 1.5-1 3-1.3 4.5-.6 3-1.1 6-1.4 9.1l-.1 19.1v.9h.9l42.1.1H100c14 0 28.1-.1 42.1-.2l42.1-.5h.3v-.3zm-84.5-1-42.1-.1-41.2.1-.1-18.1c.3-3 .6-5.9 1.2-8.9.3-1.4.6-2.9 1.1-4.2.1-.3.3-.7.4-.9l.2-.4.3-.3c.5-.4 1.1-.8 1.8-1.2 2.5-1.5 5.3-2.8 8-4.1 2.7-1.3 5.5-2.5 8.2-3.7 5.5-2.4 11.1-4.8 16.7-7.1s11.2-4.5 16.9-6.7l.2-.1v-.2c.9-11.5 1.7-23 2.7-34.4l1.4-17.2 1.5-16.7 22.6.2c7.4.1 14.8.1 22.3.1l1.3 16.4 1.5 17.2c.5 5.7 1 11.5 1.5 17.2l1.6 17.2v.3l.3.1 13.4 5c4.4 1.7 8.9 3.4 13.3 5.2 4.4 1.8 8.8 3.7 13.2 5.6 2.2 1 4.3 2 6.5 3 1.1.5 2.1 1.1 3.2 1.6 1 .6 2.1 1.2 2.9 2 .7 1.1 1.1 2.3 1.4 3.5.3 1.2.6 2.5.8 3.7.2 1.3.4 2.5.6 3.8l.2 1.9.1.9.1.5v.4c0 6.3 0 12.6-.1 18.9l-41.8-.5c-14 .1-28.1 0-42.1 0z" fill="#d07750" stroke-width="none" opacity="1" stroke="none"></path><path id="SvgjsPath19483" d="M125.1 142.4s-1.8 23-9.1 32.9c0 0 7.9-25 9.1-32.9zm-34.5 16s5 7.9 11.5 10.1c0 0-9.5 2.2-11.5-10.1zM73.4 140c6.7 25.6 6.7 25.6 8.5 30.7 0 0 .4-12.6-8.5-30.7z" fill="#df8f6c" stroke-width="none" opacity="1" stroke="none"></path></g><g id="svga-group-clothes-single"><path id="SvgjsPath19354" d="m69.9 150.1-1.8.9s-1.4 2.9-2.4 5.1c-1 2.2-4.7 5.9-4.7 5.9s-.6 2.2-.6 2.9c0 0-12.3 4.2-15.9 5.6-3.6 1.4-19.2 6.3-21.3 6.4s-5.1 1.8-5.1 1.8-3 1.7-3.9 4.5c-1 2.8-2.6 34.4-2.6 36.8h175.9s-1.8-32.4-3.5-34.9c-.6-.9-.2-2.6-5.9-5.1s-17-7-20.8-8.5-19.3-7.2-19.3-7.2-.2-2.3-2.3-3.4c-2.1-1.1-5.3-9.8-5.3-9.8l-1.3-1.3s.4 5.1.2 9.6-4.7 11.7-7.9 13.8c-3.2 2.1-9 5.7-11.3 6.6s-2.8 3.4-3.8 5.9-2.6 5.9-2.6 5.9-3.6-4.5-5.3-7.6c-1.7-3.2-4-5.5-8.3-5.1-4.2.4-5.5-.9-7-1.7-1.5-.9-10.6-15.1-11.9-18.7-1.1-3.6-1.3-8.4-1.3-8.4z" fill="#5e1515" stroke-width="none" opacity="1"></path><path id="SvgjsPath19355" d="M188.3 220c-.4-6.9-.8-13.8-1.3-20.7-.3-3.5-.6-6.9-1.1-10.4-.1-.9-.3-1.7-.5-2.6-.1-.5-.2-.9-.5-1.5l-.1-.2-.1-.2-.3-.6c-.5-1-1.2-1.7-1.9-2.3-.8-.6-1.5-1-2.3-1.5-1.6-.9-3.2-1.4-4.8-2.1l-4.8-2-9.6-4c-6.2-2.5-15.8-5.4-21.9-8.3-.1-.6-.4-1.1-.7-1.6-.4-.7-1-1.3-1.7-1.7l-.3-.1c-.1-.1-.2-.1-.2-.1-.1-.1-.1-.1-.2-.1-.2-.2-.3-.3-.5-.6-.4-.4-.7-1-1-1.5-1.2-2.2-2.2-4.6-3.1-6.9l-.1-.2-.1-.1-1.3-1.3-1.9-1.9.2 2.8c.2 2.3.3 4.6.3 6.9v2.6l-.1.8c-.2 1-.5 2.1-.9 3.1-.8 2.1-2 4.1-3.3 5.9-.7.9-1.4 1.8-2.2 2.5-.4.4-.8.7-1.2 1-.4.3-.9.6-1.4.8-4.1 2.1-4.9 3.8-9.2 5.5-.6.2-1.3.6-1.8 1.1-.5.5-.9 1.1-1.2 1.6-.6 1.1-.9 2.3-1.3 3.3l-.9 2.1c-.5 1-.9 2-1.4 3-1.2-1.6-2.5-3.2-3.6-4.9-.3-.5-.6-1-.9-1.6-.3-.6-.7-1.1-1.1-1.7-.8-1.1-1.8-2.1-3-2.7-1.2-.7-2.6-.9-4-.9-.5.1-3.5.1-7.7-1.7-.5-.2-1.5-1.9-2.3-2.9-.7-1-1.5-2.1-2.2-3.1-1.4-2.1-2.8-4.2-4.1-6.4-.7-1.1-1.3-2.2-1.9-3.3-.6-1.1-1.1-2.1-1.4-3.4.1-1.6.4-4.6.5-5.7 0 0 .1-2.2.1-2.4-1.2-.1-3.2 1.1-3.9 1.4l-1.5 3c-.5 1-.9 2-1.5 2.9-.6.9-1.3 1.8-2 2.6s-1.5 1.6-2.3 2.4l-.1.1v.1c-.1.5-.2 1-.4 1.4-.1.4-.2.8-.2 1.3-3.2 1.4-9.4 2.7-12.6 4.1-3.2 1.4-6.6 2.4-10 3.5-3.4 1-6.8 2.1-10.1 3-.9.2-1.7.5-2.5.7l-1.2.3c-.2 0-.3.1-.6.1-.2 0-.5.1-.7.1-.9.2-1.8.5-2.7.8l-1.2.6-.6.3c-.3.1-.4.3-.6.4-1.5 1.1-2.9 2.5-3.6 4.4-.2.5-.3 1-.3 1.4l-.2 1.3-.3 2.7c-.3 3.5-.6 7.1-.8 10.6l-.7 10.6c-.2 3.6-.4 7-.5 10.6v.9h.9l22-.1 22-.2 22-.2 22-.1c7.3-.1 14.7 0 22 0s14.7 0 22 .1l44 .3h.8l-.3-1.2zm-68.2-44.9c.5-.3 1.1-.6 1.6-.9.5-.3 1.1-.7 1.5-1.2.9-.9 1.7-1.8 2.4-2.8 1.4-1.9 2.6-4 3.6-6.3.4-1.1.8-2.3 1-3.6l.1-1v-2.7c0-1 0-2-.1-3 .7 1.7 1.4 3.3 2.3 4.9.3.6.7 1.2 1.1 1.8.2.3.5.6.8.9.1.1.4.3.6.4l.4.2c.4.3.7.6 1 1 .2.4.4 1 .5 1.4l.1.6v.1c.5 2.7 1.1 5.3 1.7 8 .6 2.6 1.4 5.3 2.2 7.9l2.3 7.8 1.1 3.9c.2.8.5 1.7.7 2.5-1.4-.3-2.7-.7-3.9-1.4-.8-.5-1.4-1-2.3-1.7-.8-.6-1.6-1.3-2.5-1.8-1.7-1.2-3.5-2.2-5.4-3l-1.4-.6c-.4-.2-.9-.4-1.3-.6-.8-.5-1.6-1-2.4-1.6-.8-.6-1.5-1.2-2.2-1.9-.3-.4-.7-.7-.9-1.1-.2-.2-.3-.4-.4-.6l-.2-.3-.3-.4c-1.5-1.7-3.6-2.5-5.6-2.8-.3-.1-.7-.1-1-.1 1.8-.6 3.4-1.3 4.9-2zm-12.8 10.4c.9-2.2.5-4.6 6.9-7.5.9-.1 1.4 0 2.3.2 1.8.4 3.5 1.3 4.5 2.7l.2.2.2.3c.1.1.2.3.3.4 0 0-1.8 1.6-5.9 3.2-1.7.5-3.3.9-5 1.4-1.5.3-2.9.7-4.4.9l.9-1.8zm-4.5 6.1c-1.2 1.9-2.5 3.9-4 5.6l-.4.4c-1.7-3.4-5.1-8.9-6.2-10.7.5.1.9.1 1.4.1 1.9.1 3.8.1 5.7-.1 1.2 1.6 2.3 3.2 3.5 4.7zM91 179.5c1.2 0 2.3.2 3.3.8 1 .6 1.8 1.4 2.5 2.4.3.5.7 1 .9 1.6.3.6.6 1.1 1 1.7l.6.9c-1.9-.1-3.8-.3-5.6-.6-2-.3-4-.6-6-1s-6.6-2.2-8.4-2.7c.5-.6 1-1.1 1.5-1.7.6-.8 1.1-1.4 1.8-1.7.7-.3 1.6-.3 2.4-.3.1 0 5.4.6 6 .6zm-29.6-17.3c.8-.8 1.5-1.6 2.2-2.4.7-.9 1.4-1.7 2-2.7.6-1 .9-2 1.4-3l1.3-3c.5-.3 1-.6 1.6-.9v.8l.1.9c.1.6.1 1.3.2 1.9.2 1.3.4 2.5.7 3.8.3 1.2.9 2.4 1.5 3.6.6 1.1 1.2 2.2 1.8 3.4 1.3 2.2 2.6 4.4 3.9 6.5.7 1.1 1.4 2.1 2.1 3.2.8 1.1 1.4 2.1 2.4 3.1.3.3.6.5.9.6 0 0 .1 0 .1.1-.5 0-.9.1-1.4.2-.5.2-.9.5-1.3.8-.4.4-.6.7-.9 1l-1.9 1.9c-1.3 1.3-2.6 2.5-3.9 3.7-1.3 1.2-2.7 2.4-4 3.6-1.3 1.1-2.8 2.1-4.3 3.1-2.5 1.6-5.1 3.1-7.7 4.5.5-5.5 1-11 1.4-16.5l.7-9.1c.2-2 .3-3.9.5-5.9l.2-.1v-.2c0-.4.1-.9.2-1.4 0-.6.1-1.1.2-1.5zm-5.8 57.2-22-.2-21.1-.1c.3-6.7.6-13.5 1-20.2.2-3.5.4-7.1.8-10.6.1-.9.2-1.8.3-2.6l.2-1.3c0-.2.1-.4.1-.6.1-.2.1-.4.1-.6.5-1.4 1.7-2.7 3.1-3.6.2-.1.4-.2.5-.3l.6-.3c.4-.2.8-.4 1.2-.5.8-.3 1.6-.6 2.4-.8.2 0 .4-.1.6-.1l.7-.1c.5-.1.9-.2 1.3-.3.9-.2 1.7-.5 2.6-.7 3.4-1 6.8-2.1 10.1-3.2s6.8-2.2 10-3.7c3.1-1.4 9.2-2.8 12.3-4.2-.3 1.9-.6 3.7-.9 5.6-.5 3-1 6.1-1.3 9.1-.8 6.1-1.4 12.2-2.1 18.3l-.2 1.8 1.6-.8c3.3-1.6 6.4-3.4 9.5-5.4 1.5-1 3-2.1 4.4-3.4 1.3-1.2 2.7-2.5 3.9-3.8 1.3-1.3 2.6-2.6 3.8-3.9l.3-.3c3.6 1.7 4.4 2.8 8.2 3.6 1.2.2 2.4.4 3.5.6l-.1.1c.1.1 4.8 7.7 6.7 11.6-.1.1-.2.2-.2.4-.4.7-.6 1.5-.7 2.2-.1 1.4.1 2.7.2 3.9l.5 3.7.4 3.7c.2 2.4.5 4.9.9 7.3l-21.2-.1-22-.2zm43.3.3c.2-2.5.2-4.9.2-7.4.1-2.5 0-5.1-.3-7.6-.1-1.2-.2-2.5-.1-3.6.1-.5.2-1 .4-1.4.1-.2.3-.4.4-.6l.3-.3.4-.4c.9-1 1.7-2.1 2.4-3.1.7-1.1 1.3-2.2 2-3.3v-.1l.9-2.4.9-2c1.5.1 3.1-.1 4.6-.3.8-.1 1.5-.3 2.2-.4-1.5 2.6-6.5 11.1-7.8 12.9-1.3 1.8-1.1 3.3-.9 5 0 .4.1.8.1 1.3.1 2.1.8 11.5 1 13.6h-6.1l-.6.1zm22.7 0h-14.9c-.2-2-.9-11.6-1-13.7 0-.5-.1-.9-.1-1.3-.2-1.7-.3-2.9.8-4.4 1.5-2.1 6.3-10.5 6.6-10.9l1.6-2.8c1-.4 1.8-.8 3.4-1.5 2.2-1.2 2.8-1.8 3.9-3 0 .1.1.1.1.1.3.4.7.8 1 1.2.7.8 1.4 1.5 2.2 2.2.8.7 1.6 1.3 2.6 1.8.4.3.9.5 1.4.7l1.4.6c1.8.8 3.4 1.8 5 2.9.8.6 1.6 1.1 2.3 1.8.7.6 1.6 1.4 2.5 1.9 1.9 1.1 3.9 1.7 6.1 1.9l1.3.1-.3-1.3c-.3-1.4-.7-2.7-1.1-4l-1.2-3.9-2.5-7.8c-.8-2.6-1.7-5.1-2.5-7.7-.7-2.4-1.4-4.8-2-7.1 2.9 1.4 9.4 2.8 12.3 4.1 1.6.7 3.1 1.4 4.8 2.1l4.8 2 9.6 3.9 4.8 1.9c1.6.7 3.2 1.2 4.7 2 1.4.8 2.9 1.7 3.5 2.9.1.2.1.3.2.6 0 .1.1.2.2.4.1.1.2.3.2.3.1.1.2.6.3 1 .2.8.3 1.6.5 2.5.5 3.4.8 6.8 1.1 10.2.6 6.6 1.1 13.2 1.5 19.9l-43.2.3c-7.2 0-14.6 0-21.9.1zm-9.9-37.7c.8 0 1.5.7 1.5 1.5s-.7 1.5-1.5 1.5-1.5-.7-1.5-1.5.7-1.5 1.5-1.5zm-10.1 18.4c.8 0 1.5.7 1.5 1.5s-.7 1.5-1.5 1.5-1.5-.7-1.5-1.5.7-1.5 1.5-1.5zm-73.8-4.5c-.2-1.2-.5-2.6-.9-3.8-.4-1.2-.9-2.4-1.3-3.6-1-2.3-2-4.6-3.1-6.9l1.2 3.6 1.2 3.6 1.2 3.6c.4 1.2.6 2.4.8 3.6.4 2.5.6 5 .9 7.5l.4 3.8c.2 1.2.3 2.5.5 3.8 0-2.5 0-5.1-.2-7.6-.2-2.6-.4-5.1-.7-7.6zm150.5-9.2c-.5.6-.9 1.3-1.3 1.9-.8 1.3-1.5 2.7-2.2 4.1-1.4 2.8-2.6 5.7-3.6 8.6v.2c-.2 2.5-.3 5-.4 7.6-.1 2.5-.2 5-.2 7.6.4-2.5.7-5 .9-7.5.3-2.5.5-5 .7-7.5 1.1-2.9 2.2-5.7 3.4-8.6.6-1.4 1.2-2.8 1.9-4.2.7-1.4 1.4-2.8 2.5-3.8-.6.4-1.2 1-1.7 1.6z" fill="#3f0101" stroke-width="none" opacity="1"></path><path id="SvgjsPath19356" d="M135.7 164.5c-.1 4.2.8 8.5 1.7 12.6.3 1.3 4.5 13.8 4.4 13.8 0 0-6.8-5.8-8.1-6.6-3.9-2.4-8.2-4.3-12.3-6.2-.3-.1-.5.3-.2.4 7.3 4 15.5 8.1 21.4 14.1.1.1.4 0 .4-.2-3.6-9.2-4.6-18.4-6.7-27.9-.2-.4-.6-.3-.6 0zm43.6 17.9c-5-2.4-10.5-3.8-15.7-5.7-6.6-2.4-16.5-5.3-22.9-8.2-.3-.2-.6.3-.3.5 5.1 3.5 14.5 5.8 20.3 8 5.9 2.2 12.2 4.8 18.4 6.1.3 0 .6-.5.2-.7zm-2.4 2.3c-2.5 2.6-4.7 5.8-5.6 9.2-.1.2.3.4.4.2 1.4-3.4 3-6.4 5.6-9 .1-.3-.2-.6-.4-.4zm6 2.1c0-.4-.6-.4-.6 0 .1 5.9.2 11.8.8 17.6 0 .4.6.4.6 0 .1-5.8-.3-11.8-.8-17.6zm-105-9.3c-6.2 5.9-13 11.3-19.1 17.2-.2.2.1.7.4.5 7.2-4.7 13.5-10.9 19.5-17 .3-.4-.4-1.1-.8-.7z" fill="#6d2323" stroke-width="none" opacity="1"></path></g><g id="svga-group-head" transform="matrix(1,0,0,1,0,0)"><g id="svga-group-ears-left-move" transform="matrix(1,0,0,1,0,0)"><g id="svga-group-ears-left"><path id="SvgjsPath20047" d="M64.76 80.15s-6.05-5.71-11.65-8.37c0 0-2.9.43-6.25 3.44 0 0 2.32 4.96 4.4 7.42 2.07 2.46 5.01 10.72 5.25 13.08.24 2.36-.73 6.67-.59 8.06.14 1.39 3.24 1.5 3.24 1.5s5.71-3.24 9.27-8.23c0-.01-1.08-9.31-3.67-16.9z" fill="#fec6ae" stroke-width="none" opacity="1"></path><path id="SvgjsPath20048" d="M65.07 87.27c.04-.28-8.52-10.28-14.7-11.44 0 0 1.73 5.62 2.89 7.46s4.94 11 4.61 15.67c0 0 3.96-2.27 6.18-4.1 0 0 .54-4.33 1.02-7.59z" fill="#efa98c" stroke-width="none" opacity="1"></path><path id="SvgjsPath20049" d="m46.65 74.98-.18.16.11.21c.65 1.31 1.35 2.58 2.1 3.83s1.55 2.47 2.5 3.58c.88 1.11 1.53 2.42 2.14 3.72.59 1.32 1.11 2.67 1.59 4.03.46 1.37.89 2.75 1.2 4.15.35 1.38.16 2.81 0 4.24-.16 1.43-.44 2.84-.54 4.34-.01.19-.01.38.01.59.04.25.13.49.28.67.3.37.68.56 1.04.71.74.28 1.48.39 2.24.44l.1.01.1-.06c1.83-1.07 3.53-2.3 5.11-3.7.8-.69 1.55-1.43 2.27-2.2.73-.77 1.38-1.6 2.01-2.45l.09-.12-.02-.15c-.4-2.88-.92-5.72-1.56-8.54-.32-1.41-.69-2.81-1.08-4.2-.41-1.39-.87-2.76-1.37-4.12-.86-.87-1.74-1.67-2.64-2.46-.9-.8-1.84-1.55-2.79-2.29-1.91-1.47-3.93-2.81-6.11-3.89l-.09-.04-.1.02c-.65.12-1.22.31-1.8.54-.57.23-1.13.5-1.66.81-.53.31-1.05.64-1.54 1.01-.49.36-.96.75-1.41 1.16zm.6.32c.39-.33.79-.66 1.2-.95.48-.35.98-.66 1.48-.95.52-.28 1.04-.55 1.58-.77.51-.21 1.04-.39 1.55-.5 1.03.5 2.04 1.06 3.02 1.66 1 .64 2.01 1.28 2.98 1.98.98.69 1.92 1.42 2.87 2.15.94.73 1.88 1.5 2.78 2.26a65.5 65.5 0 0 1 1.1 4.17c.33 1.4.64 2.81.9 4.22.52 2.77.98 5.57 1.3 8.37-.59.78-1.2 1.54-1.87 2.24-.71.74-1.44 1.46-2.23 2.13-1.53 1.31-3.16 2.54-4.87 3.58-.64-.04-1.32-.14-1.9-.35-.3-.12-.59-.27-.75-.47-.08-.1-.12-.2-.14-.31-.01-.15-.02-.32-.01-.49.06-1.4.29-2.85.43-4.29.12-1.43.25-2.96-.17-4.4-.37-1.42-.84-2.79-1.35-4.15a54.07 54.07 0 0 0-1.65-4.03c-.6-1.32-1.22-2.64-2.12-3.82-.9-1.12-1.63-2.37-2.32-3.63-.64-1.2-1.24-2.42-1.81-3.65z" fill="#efa98c" stroke-width="none" opacity="1"></path><path id="SvgjsPath20050" d="M55.9 80.14c.92.98 1.71 2.06 2.44 3.17.74 1.11 1.44 2.24 2.05 3.42.63 1.17 1.22 2.36 1.71 3.59l-.07.03c-.67-1.14-1.37-2.27-2.06-3.38-.72-1.11-1.41-2.23-2.18-3.29-.77-1.07-1.53-2.13-2.37-3.14-.69-.85-1.43-1.67-2.27-2.37l1.72 3.94c.67 1.51 1.31 3.03 1.88 4.58a38.98 38.98 0 0 1 1.44 4.76c.26 1.14.48 2.31.53 3.5.14-.27.27-.55.38-.83.28-.73.44-1.5.5-2.28-.46-1.67-.91-3.34-1.32-5.02l.07-.02c.64 1.63 1.22 3.29 1.81 4.94l.01.04v.06c-.02.86-.15 1.71-.42 2.53-.13.41-.29.81-.47 1.19-.19.39-.4.75-.66 1.13l-.8 1.12.09-1.39c.1-1.57-.17-3.19-.49-4.78-.33-1.59-.77-3.17-1.25-4.73-.48-1.56-.99-3.13-1.57-4.67-.6-1.53-1.23-3.05-1.99-4.51l-.26-.5.49.31c1.16.7 2.14 1.63 3.06 2.6z" fill="#d07750" stroke-width="none" opacity="1"></path></g></g><g id="svga-group-ears-right-move" transform="matrix(1,0,0,1,0,0)"><g id="svga-group-ears-right"><path id="SvgjsPath20051" d="M135.24 80.15s6.05-5.71 11.65-8.37c0 0 2.9.43 6.25 3.44 0 0-2.32 4.96-4.4 7.42s-5.01 10.72-5.25 13.08c-.24 2.36.73 6.67.59 8.06-.14 1.39-3.24 1.5-3.24 1.5s-5.71-3.24-9.27-8.23c0-.01 1.08-9.31 3.67-16.9z" fill="#fec6ae" stroke-width="none" opacity="1"></path><path id="SvgjsPath20052" d="M134.93 87.27c-.04-.28 8.52-10.28 14.7-11.44 0 0-1.73 5.62-2.89 7.46s-4.94 11-4.61 15.67c0 0-3.96-2.27-6.18-4.1 0 0-.54-4.33-1.02-7.59z" fill="#efa98c" stroke-width="none" opacity="1"></path><path id="SvgjsPath20053" d="M151.93 73.82c-.49-.37-1.01-.7-1.54-1.01-.53-.31-1.09-.58-1.66-.81-.58-.23-1.15-.42-1.8-.54l-.1-.02-.09.04c-2.18 1.08-4.2 2.42-6.11 3.89-.95.74-1.89 1.49-2.79 2.29-.9.8-1.79 1.59-2.64 2.46-.5 1.36-.96 2.74-1.37 4.12-.39 1.39-.76 2.79-1.08 4.2-.65 2.82-1.16 5.67-1.56 8.54l-.02.15.09.12c.63.85 1.29 1.68 2.01 2.45.72.77 1.48 1.51 2.27 2.2 1.58 1.39 3.28 2.62 5.11 3.7l.1.06.1-.01c.77-.05 1.5-.16 2.24-.44.36-.15.74-.34 1.04-.71.15-.18.25-.42.28-.67.02-.21.02-.41.01-.59-.1-1.5-.37-2.9-.54-4.34-.16-1.43-.35-2.86 0-4.24.31-1.4.74-2.78 1.2-4.15.48-1.36 1-2.71 1.59-4.03.61-1.3 1.26-2.61 2.14-3.72.94-1.12 1.75-2.34 2.5-3.58.75-1.25 1.45-2.52 2.1-3.83l.11-.21-.18-.16c-.44-.41-.91-.8-1.41-1.16zm-1.01 5.12c-.7 1.26-1.42 2.51-2.32 3.63-.9 1.18-1.52 2.5-2.12 3.82a54.07 54.07 0 0 0-1.65 4.03c-.51 1.36-.98 2.73-1.35 4.15-.42 1.44-.28 2.96-.17 4.4.13 1.44.37 2.9.43 4.29.01.17 0 .34-.01.49-.02.11-.06.21-.14.31-.16.2-.44.36-.75.47-.58.21-1.26.31-1.9.35-1.71-1.04-3.34-2.27-4.87-3.58-.78-.67-1.52-1.38-2.23-2.13-.68-.71-1.29-1.47-1.87-2.24.32-2.8.77-5.59 1.3-8.37.26-1.42.57-2.82.9-4.22.32-1.41.7-2.79 1.1-4.17.9-.76 1.84-1.53 2.78-2.26.95-.73 1.9-1.46 2.87-2.15.97-.69 1.98-1.34 2.98-1.98.98-.6 1.99-1.16 3.02-1.66.51.11 1.05.29 1.55.5.54.23 1.06.49 1.58.77.51.29 1.01.6 1.48.95.42.3.81.62 1.2.95-.55 1.24-1.15 2.46-1.81 3.65z" fill="#efa98c" stroke-width="none" opacity="1"></path><path id="SvgjsPath20054" d="M144.1 80.14c-.92.98-1.71 2.06-2.44 3.17-.74 1.11-1.44 2.24-2.05 3.42-.63 1.17-1.22 2.36-1.71 3.59l.07.03c.67-1.14 1.37-2.27 2.06-3.38.72-1.11 1.41-2.23 2.18-3.29.77-1.07 1.53-2.13 2.37-3.14.69-.85 1.43-1.67 2.27-2.37l-1.72 3.94c-.67 1.51-1.31 3.03-1.88 4.58a38.98 38.98 0 0 0-1.44 4.76c-.26 1.14-.48 2.31-.53 3.5a8.84 8.84 0 0 1-.38-.83c-.28-.73-.44-1.5-.5-2.28.46-1.67.91-3.34 1.32-5.02l-.07-.02c-.64 1.63-1.22 3.29-1.81 4.94l-.01.04v.06c.02.86.15 1.71.42 2.53.13.41.29.81.47 1.19.19.39.4.75.66 1.13l.8 1.12-.09-1.39c-.1-1.57.17-3.19.49-4.78.33-1.59.77-3.17 1.25-4.73.48-1.56.99-3.13 1.57-4.67.6-1.53 1.23-3.05 1.99-4.51l.26-.5-.49.31c-1.16.7-2.14 1.63-3.06 2.6z" fill="#d07750" stroke-width="none" opacity="1"></path></g></g><g id="svga-group-faceshape-wrap"><g id="svga-group-faceshape-single"><path id="SvgjsPath19460" d="M139.42 105.09c.29-8.36-.32-24.19.98-36.59 0 0 .9-9.5 0-13.6-2.2-10-6.3-16-15.2-20.8-9.3-5-25.2-4.8-25.2-4.8s-15.9-.2-25.2 4.8c-8.8 4.8-13 10.8-15.2 20.8-.9 4 0 13.6 0 13.6 1.3 12.4.52 25.14.91 34.65.49 15.53 4.95 26.5 10.09 33.1 12.7 15.7 29.4 15.35 29.4 15.35s15.46 1.51 28.16-14.19c8.05-9.99 10.85-20.76 11.26-32.32z" fill="#fec6ae" stroke-width="none" opacity="1" stroke="none"></path><path id="SvgjsPath19461" d="M87.9 137.9s8.6-8.5 21.2-.5c0 0-12.3-3-21.2.5z" fill="#df8f6c" stroke-width="none" opacity="1" stroke="none"></path><path id="SvgjsPath19462" d="M128.16 137.41c8.06-9.99 10.86-20.76 11.26-32.32.29-8.36-.32-24.19.98-36.59 0 0 .9-9.5 0-13.6-2.2-10-6.3-16-15.2-20.8-9.3-5-25.2-4.8-25.2-4.8s-15.9-.2-25.2 4.8c-8.8 4.8-13 10.8-15.2 20.8-.9 4 0 13.6 0 13.6 1.3 12.4.52 25.14.91 34.65.49 15.53 4.95 26.5 10.09 33.1 12.7 15.7 29.4 15.35 29.4 15.35s15.46 1.51 28.16-14.19zm-5.62 4.69c-2.14 1.75-4.41 3.3-6.84 4.57-2.44 1.24-5 2.22-7.64 2.86-.66.18-1.32.32-1.99.43-.66.14-1.34.21-2.01.3-1.32.14-2.74.21-3.95.11h-.15c-2.6-.07-5.41-.57-8.03-1.33-2.64-.77-5.22-1.78-7.63-3.11-4.86-2.58-9.15-6.21-12.64-10.46-3.35-4.3-5.73-9.43-7.31-14.76-1.57-5.35-2.42-10.92-2.68-16.53-.33-5.63-.25-11.32-.34-17.02-.08-5.7-.31-11.42-.91-17.11-.33-2.83-.55-5.64-.65-8.47-.05-1.41-.06-2.82.01-4.22.04-.69.09-1.39.22-2.06.12-.68.3-1.37.45-2.06.69-2.73 1.64-5.39 2.96-7.86 1.36-2.45 3.09-4.69 5.19-6.55 2.09-1.86 4.49-3.41 6.99-4.67 2.51-1.23 5.24-2.02 7.99-2.63 5.52-1.15 11.21-1.55 16.83-1.46 5.62.17 11.28.81 16.68 2.19 2.7.69 5.33 1.6 7.71 2.91 2.43 1.34 4.72 2.89 6.7 4.76 4.02 3.71 6.38 8.86 7.71 14.27.73 2.59.72 5.42.74 8.24-.02 2.83-.18 5.62-.4 8.49-.68 11.42 0 22.8-.28 34.17-.21 5.61-1.03 11.23-2.84 16.53-1.8 5.31-4.6 10.23-8.11 14.54-.84 1.11-1.85 2.07-2.77 3.11-.45.53-1 .96-1.49 1.44-.49.45-.98.94-1.52 1.38z" fill="#d07750" stroke-width="none" opacity="1" stroke="none"></path></g></g><g id="svga-group-mouth-single-move" transform="matrix(1,0,0,1,0,0)"><g id="svga-group-mouth-single"><path id="SvgjsPath20004" d="M119.9 121.9c-.2-.3-.6-.6-.9-.8-.3-.1-.8-.1-.8.4 0 .3.2.6.5.8-.66 1.22-2.4 1.46-3.8 1.56-1.5.1-2.71.22-4.49-.17-3.42-.92-6.52-1.82-9.62-1.62-2.9.1-5.13.98-7.93 1.78-3.3.9-7.66 2.74-9.96-.66.3-.2.6-.4.8-.7.4-.4 0-1-.5-.9-1 .3-2.3 1.6-2.2 2.7 0 .2.3.4.5.3.4-.3.7-.7 1-1 .9 1.7 2.7 2.5 4.7 2.7 2 .1 3.9-.5 5.9-.9 2.2-.5 4.4-.7 6.6-.8 4.1-.1 8.1.2 12.2.4 2.4.1 5.7.4 7.5-1.5.1.3.2.6.5.8.1.1.3 0 .4-.1.7-.59 0-1.69-.4-2.29z" fill="#904539" stroke-width="none" opacity="1" stroke="none"></path><path id="SvgjsPath20005" d="M105.6 128.4c-3.4.2-6.6.7-10 .5-.3 0-.3.4-.1.4 3.2.7 7 .9 10.2-.2.4-.1.4-.7-.1-.7z" fill="#df8f6c" stroke-width="none" opacity="1" stroke="none"></path></g></g><g id="svga-group-eyes-left-move" transform="matrix(1,0,0,1,0,0)"><g id="svga-group-eyes-left"><g id="svga-group-eyesback-left"><path id="SvgjsPath19414" d="M80.2 74.2c7.5 0 13.5 5.8 13.5 13s-6 13-13.5 13-13.5-5.8-13.5-13 6-13 13.5-13z" fill="#ffffff" stroke-width="none" opacity="1"></path></g><g id="svga-group-eyesiriswrapper-left" transform="matrix(1,0,0,1,0,0)"><g id="svga-group-eyesiriscontrol-left" transform="matrix(1,0,0,1,0,0)"><g id="svga-group-eyesiris-left"><path id="SvgjsPath19498" d="M80.2 81.9c2.9 0 5.3 2.4 5.3 5.3s-2.4 5.3-5.3 5.3-5.3-2.4-5.3-5.3 2.4-5.3 5.3-5.3z" fill="#42201e" stroke-width="none" opacity="1"></path><path id="SvgjsPath19499" d="M77.4 88.7c0 1.3.5 2.5 1.3 3.3.5.1 1 .2 1.5.2 2.8 0 5.1-2.3 5.1-5.1 0-1-.3-2-.8-2.8-.7-.3-1.4-.5-2.2-.5-2.8.1-4.9 2.3-4.9 4.9z" fill="#512f2d" stroke-width="none" opacity="1"></path><path id="SvgjsPath19500" d="M80.2 84.5c1.5 0 2.7 1.2 2.7 2.7s-1.2 2.7-2.7 2.7-2.7-1.2-2.7-2.7 1.2-2.7 2.7-2.7z" fill="#000000" stroke-width="none" opacity="1"></path><path id="SvgjsPath19501" d="M79 84.5c.5 0 .9.4.9.9s-.4.9-.9.9-1-.4-1-.9.5-.9 1-.9zm3.1 4.3c.2 0 .4.2.4.4s-.2.4-.4.4-.4-.2-.4-.4.2-.4.4-.4z" fill="#ffffff" stroke-width="none" opacity="1"></path><path id="SvgjsPath19502" d="M80.2 81.6c-3.1 0-5.6 2.5-5.6 5.6s2.5 5.6 5.6 5.6 5.6-2.5 5.6-5.6-2.5-5.6-5.6-5.6zm0 .6c.2 0 .4 0 .7.1h.5-.2c.1 0 .2 0 .2.1.1 0 .1 0 .2.1.2.1.3.2.5.3.1-.1.2-.1.3-.1.1 0 .1.1.2.1.1.1.1.1.1.2.3-.1.6.2.5.5.3-.2.8.3.6.6.2-.1.4 0 .4.2s.1.4-.1.5c.2 0 .5.1.6.3.1.2.1.5-.1.7.2 0 .4.2.5.4s0 .5-.2.6c.2.1.3.3.3.5s-.1.4-.3.5c.2.1.3.3.3.5s-.2.4-.4.4c.3.2.1.8-.2.8.1.1.1.2.1.3-.1.1-.1.3-.2.4s-.2.1-.4.1c.1.4-.3.8-.8.7 0 .2 0 .3-.1.4s-.1.1-.2.1c-.2.1-.3 0-.5-.1 0 .2-.1.4-.3.5-.2.1-.4 0-.6-.2 0 .2-.1.3-.2.4-.2 0-.3.1-.5.1-.1-.1-.3-.2-.3-.3 0 .2-.2.4-.4.4s-.4-.2-.5-.4c-.1.2-.3.3-.6.2H79c-.2-.1-.3-.3-.3-.5-.2.2-.4.2-.6.1s-.3-.3-.3-.5c-.2.1-.5.1-.6 0h-.1c-.2-.2-.2-.4-.1-.7-.2.2-.4.1-.6 0l-.1-.1c-.1-.2-.1-.4 0-.6-.2 0-.4-.1-.6-.2-.4-.7-.7-1.6-.7-2.4.1-2.8 2.4-5 5.2-5zm2 .4s-.1 0 0 0z" fill="#230a09" stroke-width="none" opacity="1"></path><path id="SvgjsPath19503" d="M76.5 89.7c.2 0 .3-.1.4-.2.2-.1.3-.2.4-.3v-.1c-.2.1-.3.1-.4.2-.1.2-.3.2-.4.4 0-.1 0 0 0 0zm-1.2-1.5c.1 0 .3 0 .4-.1.2 0 .3-.1.5-.1v-.1c-.2 0-.3 0-.5.1s-.3 0-.4.2c0-.1 0 0 0 0zm.5-2.5c.4.1.8.3 1.2.4 0 0 .1 0 0-.1-.4-.1-.8-.3-1.2-.3 0-.1 0 0 0 0zm.2-.7c.2.2.4.3.7.4 0 0 .1 0 0-.1-.2-.2-.5-.3-.7-.3-.1-.1-.1-.1 0 0zm3.7 6.5c.1-.3.2-.7.2-1 0 0-.1-.1-.1 0-.1.3-.1.7-.1 1zm3.5-4c.3.1.7.1 1.1.1v-.1h-1.1zm.2-.7c.3 0 .7.1 1 0v-.1c-.3 0-.6 0-1 .1zm.2-2.7c-.3.2-.6.5-.9.8 0 0 0 .1 0 0 .3-.2.6-.5.9-.8.1 0 0 0 0 0zm-2.8-1.3c-.1.3-.2.5-.2.8 0 .1.1.1.1 0 .1-.2.1-.5.1-.8zm-2.9.3c.1.2.2.5.3.7h.1c-.1-.2-.3-.4-.4-.7z" fill="#230a09" stroke-width="none" opacity="1"></path></g></g></g><g id="svga-group-eyesfront-left"><path id="SvgjsPath19422" d="M80.2 73.7c-7.8 0-14.1 6.1-14.1 13.6s6.3 13.6 14.1 13.6 14.1-6.1 14.1-13.6S88 73.7 80.2 73.7zm-1.3 22.6c-7.8 0-10.2-4.1-10.2-4.1 2.7-9.7 7.8-15.2 13.5-12.6 5.7 2.6 7.3 8.8 7.3 9.8-.1 1.1-2.9 6.8-10.6 6.9z" fill="#fec6ae" stroke-width="none" opacity="1" stroke="none"></path><path id="SvgjsPath19423" d="M82.2 96.1c2.4-.6 4.6-2.1 6.1-4 .4-.5.7-1 1-1.6.1-.3.3-.6.3-.9s0-.6-.1-.9c-.2-1.2-.7-2.4-1.3-3.5-1.1-2.2-2.9-4.1-5-5.3-1.1-.6-2.3-1.1-3.6-1.1-1.3-.1-2.6.3-3.6.9-1.1.7-2 1.5-2.8 2.5-.4.5-.8 1-1.1 1.5-.2.3-.3.5-.5.8l-.4.8c-1.1 2.2-1.9 4.5-2.5 6.9.7 1.1 1.7 1.9 2.7 2.5 1.1.6 2.2 1.1 3.4 1.3 1.2.3 2.4.4 3.7.4.6 0 1.2 0 1.9-.1.5 0 1.2 0 1.8-.2zm-2.8-.1h-.9c-1.2 0-2.4-.1-3.6-.4-1.2-.2-2.3-.6-3.4-1.2s-2.1-1.3-2.8-2.3c.7-2.3 1.6-4.6 2.8-6.7l.4-.8c.2-.3.3-.5.5-.8.3-.5.7-1 1.1-1.4.8-.9 1.7-1.7 2.7-2.3 1-.6 2.2-.9 3.3-.9 1.2 0 2.3.4 3.4 1 2.1 1.2 3.8 2.9 5 5.1.6 1.1 1.1 2.2 1.3 3.4.1.3.1.6.1.9-.1.3-.2.6-.3.8-.3.6-.6 1.1-1 1.5-1.5 1.9-3.7 3.2-6 3.7-.6.2-1.2.2-1.8.3-.2.1-.5.1-.8.1z" fill="#153a4d" stroke-width="none" opacity="1" stroke="none"></path><path id="SvgjsPath19424" d="M73.3 78.5c4-3.4 9.5-2 9.5-2-1.7-1.1-8.5-1.9-11.5 2.9s-3.4 12.3-3.4 12.3 1.4-9.9 5.4-13.2zm16.5 11.9C88.1 99.5 80 101 80 101c10.8-1.9 9.8-10.6 9.8-10.6z" fill="#df8f6c" stroke-width="none" opacity="1" stroke="none"></path></g></g></g><g id="svga-group-eyes-right-move" transform="matrix(1,0,0,1,0,0)"><g id="svga-group-eyes-right"><g id="svga-group-eyesback-right"><path id="SvgjsPath19415" d="M119.8 74.2c7.5 0 13.5 5.8 13.5 13s-6 13-13.5 13-13.5-5.8-13.5-13 6-13 13.5-13z" fill="#ffffff" stroke-width="none" opacity="1"></path></g><g id="svga-group-eyesiriswrapper-right" transform="matrix(1,0,0,1,0,0)"><g id="svga-group-eyesiriscontrol-right" transform="matrix(1,0,0,1,0,0)"><g id="svga-group-eyesiris-right"><path id="SvgjsPath19504" d="M119.8 82.5c2.6 0 4.7 2.1 4.7 4.7s-2.1 4.7-4.7 4.7-4.7-2.1-4.7-4.7 2.1-4.7 4.7-4.7z" fill="#42201e" stroke-width="none" opacity="1"></path><path id="SvgjsPath19505" d="M117.3 88.5c0 1.1.4 2.2 1.2 2.9.4.1.8.2 1.3.2 2.4 0 4.4-2 4.4-4.4 0-.9-.3-1.8-.7-2.4-.6-.3-1.2-.5-1.9-.5-2.4 0-4.3 1.9-4.3 4.2z" fill="#512f2d" stroke-width="none" opacity="1"></path><path id="SvgjsPath19506" d="M119.8 84.8c1.3 0 2.4 1.1 2.4 2.4s-1.1 2.4-2.4 2.4-2.4-1.1-2.4-2.4 1.1-2.4 2.4-2.4z" fill="#000000" stroke-width="none" opacity="1"></path><path id="SvgjsPath19507" d="M118.7 84.8c.5 0 .8.4.8.8s-.4.8-.8.8-.8-.4-.8-.8.4-.8.8-.8zm2.8 3.8c.2 0 .3.1.3.3s-.1.3-.3.3-.3-.1-.3-.3.1-.3.3-.3z" fill="#ffffff" stroke-width="none" opacity="1"></path><path id="SvgjsPath19508" d="M119.8 82.3c-2.7 0-4.9 2.2-4.9 4.9s2.2 4.9 4.9 4.9 4.9-2.2 4.9-4.9-2.2-4.9-4.9-4.9zm.9.6zm-.9-.1c.2 0 .4 0 .6.1h.4c.1 0 .2.1.3.1.1.1.3.1.4.2.1-.1.1-.1.2-.1s.2.1.3.1c0 0 .1.1.1.2.2-.1.5.2.5.4.3-.1.7.2.6.5.1 0 .3 0 .4.2.1.1 0 .3-.1.4.2 0 .4.1.5.3.1.2.1.4-.1.6.2 0 .3.1.4.2 0 .1.1.1.1.2 0 .2-.1.3-.2.4.2.1.2.2.3.4v.1c0 .2-.1.3-.3.4.1.1.2.2.2.3v.2c-.1.1-.2.3-.3.3.2.2.1.7-.2.7.1.1.1.2.1.2-.1.2-.2.3-.2.4-.1.1-.2.1-.3.1.1.4-.3.7-.7.7 0 .1 0 .2-.1.3-.1.1-.2.1-.2.2-.1 0-.3 0-.4-.1 0 .2-.1.4-.3.4-.2.1-.4 0-.5-.2 0 .1-.1.3-.2.4-.1 0-.3.1-.4.1-.1-.1-.2-.1-.3-.3 0 .2-.2.3-.4.3s-.4-.1-.4-.3c-.1.2-.3.3-.5.2-.2-.1-.3-.2-.3-.4-.1.1-.4.2-.5.1-.2-.1-.3-.3-.3-.4-.2.1-.4.1-.6 0s-.2-.4-.1-.6c-.2.1-.4.1-.6 0-.1-.2-.2-.4 0-.6-.2 0-.4-.1-.5-.2s-.1-.2-.2-.3c-.2-.6-.4-1.2-.4-1.8-.2-2.4 1.7-4.4 4.2-4.4zm-2.5 8.1zm-1.2-1.2zm.6.6c0 .1 0 .1 0 0 0 .1 0 .1 0 0z" fill="#230a09" stroke-width="none" opacity="1"></path><path id="SvgjsPath19509" d="M116.6 89.4c.1 0 .2-.1.4-.2.1-.1.3-.1.4-.2v-.1c-.1.1-.3.1-.4.2s-.3.1-.4.3c-.1-.1 0 0 0 0zm-1.1-1.4c.1 0 .2 0 .4-.1.1 0 .3-.1.4-.1v-.1c-.1 0-.3 0-.4.1s-.3.1-.4.2zm.5-2.1c.3.1.7.2 1 .3 0 0 .1 0 0 0-.3-.2-.7-.3-1-.3-.1-.1-.1 0 0 0zm.1-.7c.2.1.4.3.6.4 0 0 .1 0 0-.1l-.6-.3zm3.3 5.8c.1-.3.2-.6.2-.9 0 0-.1-.1-.1 0-.1.2-.1.6-.1.9-.1 0 0 0 0 0zm3-3.5c.3.1.6.1.9.1-.2-.1-.6-.1-.9-.1zm.2-.6h.8v-.1c-.2 0-.5 0-.8.1 0-.1 0 0 0 0zm.2-2.4c-.3.2-.6.4-.8.7.2-.2.5-.4.8-.7zm-2.5-1.1c-.1.2-.1.5-.1.7h.1v-.7zm-2.5.2.3.6h.1c-.2-.2-.3-.4-.4-.6z" fill="#230a09" stroke-width="none" opacity="1"></path></g></g></g><g id="svga-group-eyesfront-right"><path id="SvgjsPath19425" d="M119.8 73.7c-7.8 0-14.1 6.1-14.1 13.6s6.3 13.6 14.1 13.6 14.1-6.1 14.1-13.6-6.3-13.6-14.1-13.6zm1.4 21.3c-7-.5-9.3-5.5-9.3-6.4s1.7-6 7.1-7.8 11.1 3.8 10.9 11.1c0 0-1.6 3.6-8.7 3.1z" fill="#fec6ae" stroke-width="none" opacity="1" stroke="none"></path><path id="SvgjsPath19428" d="M124.4 81c-1-.5-2.1-.8-3.2-.8s-2.2.3-3.2.7c-2 .9-3.7 2.4-4.8 4.2-.6.9-1 1.9-1.3 2.9-.1.2-.1.6-.1.8.1.3.2.5.3.8.2.5.5.9.8 1.4 1.3 1.7 3.1 3 5.2 3.7 2.1.7 4.3.7 6.4.4 1.1-.2 2.1-.5 3.1-1 .5-.3.9-.6 1.3-.9.4-.4.8-.8 1-1.3.1-2.1-.2-4.3-1.2-6.2-.9-2-2.3-3.7-4.3-4.7zm3.1 12.8c-.9.4-2 .7-3 .8-1 .1-2.1.1-3.1.1-1-.1-2.1-.2-3.1-.5-2-.6-3.9-1.7-5.2-3.3-.3-.4-.6-.9-.8-1.3-.1-.2-.2-.5-.3-.7-.1-.2 0-.5.1-.7.3-1 .8-1.9 1.4-2.8 1.2-1.7 2.8-3.1 4.7-3.9.9-.4 1.9-.7 3-.6 1 0 2 .3 2.9.8 1.8.9 3.3 2.5 4.3 4.4 1 1.8 1.5 3.9 1.5 6.1-.5.5-1.4 1.2-2.4 1.6z" fill="#153a4d" stroke-width="none" opacity="1" stroke="none"></path><path id="SvgjsPath19429" d="M126.3 80.5c3.4 3 4.3 11.1 4.3 11.1s0-6.1-2.5-10.2-8.4-3.3-9.9-2.5c0 0 4.7-1.4 8.1 1.6zm-14.8 8.8s-.4 5.3 4.1 8.1c0 0-3.2-3-4.1-8.1zm7.9 9c8 1.2 10.4-5.1 10.4-5.1-3.9 5.5-9.5 5.2-10.4 5.1z" fill="#df8f6c" stroke-width="none" opacity="1" stroke="none"></path></g></g></g><g id="svga-group-facehighlight-single"></g><g id="svga-group-eyebrows-left-move" transform="matrix(1,0,0,1,0,0)"><g id="svga-group-eyebrows-left-rotate" transform="matrix(1,1.7453292519943295e-9,-1.7453292519943295e-9,1,1.2391838311032188e-7,-1.3753196981269866e-7)"><g id="svga-group-eyebrows-left"><path id="SvgjsPath19332" d="M92.8 69.5s-.2 3.9-1 7.1c0 0-16.1-4.6-18-4.8-1.9-.2-8.4 4.1-8.4 4.1l6.5-9.8 3.8.3-.6-.9 8 1.9 7.5 1.2.5 2.8.4-2.8.5 2.8.8-1.9z" fill="#2a2a25" stroke-width="none" opacity="1"></path><path id="SvgjsPath19333" d="m92.8 69.5-.1.1c-.1.3-.2.5-.4.8-.1.2-.2.4-.3.7l-.4-2.5-.2-.9-.2.9-.3 1.6-.3-1.6v-.2h-.2l-3.9-.7-1.9-.3c-.6-.1-1.3-.2-1.9-.3-2.6-.6-5.1-1.2-7.7-1.8l-.8-.2.5.8.3.1-3.1-.2h-.2l-.1.1c-1.1 1.7-2.1 3.3-3.2 5l-3.2 5-.4.6.6-.4c1.9-1.3 3.9-2.5 6-3.4.5-.2 1.1-.4 1.6-.6.3-.1.5-.1.8-.1l.4.1.4.1c1.1.3 2.3.6 3.4.9 2.3.7 4.5 1.3 6.8 1.9 2.3.6 4.5 1.2 6.8 1.8l.2.1v-.2c.3-1.2.4-2.4.6-3.6.1-.6.1-1.2.2-1.8 0-.3 0-.6.1-.9V69.6l.1-.1c0 .1 0 0 0 0zm-.1.4-.1.4-.1.9-.3 1.8c-.2 1.1-.4 2.2-.7 3.3-2.2-.7-4.4-1.3-6.6-2-2.3-.7-4.5-1.3-6.8-1.8-1.1-.3-2.3-.5-3.4-.8l-.4-.1-.4-.1c-.3 0-.6 0-.9.1-.6.2-1.1.4-1.6.6-1.9.9-3.7 1.9-5.5 3.1l2.9-4.2c1.1-1.6 2.2-3.2 3.2-4.7l3.6.3.7.1-.4-.7-.1-.1c2.3.6 4.6 1.1 6.9 1.6l3.9.6 3.7.5.5 2.5.2 1.2.2-1.2.3-2 .4 1.9.1.3.1-.3.3-.9c.1-.3.2-.6.3-.8v.5zm-2.9 4.7c0-.8-.1-1.7-.2-2.5-.1-.4-.1-.8-.2-1.2s-.2-.8-.4-1.2c.1.4.1.8.1 1.2 0 .4.1.8.2 1.2.1.8.3 1.7.5 2.5zm-1.2-1.7c-.2-.3-.3-.7-.5-1l-.5-1-1-1.9-.2-.5v.6c0 1.6 0 3.2.1 4.8l.3-.1c-.3-.4-.6-.9-.9-1.3l-.9-1.2c-.3-.4-.6-.8-1-1.2-.3-.4-.7-.8-1.1-1.1.3.4.7.8 1 1.2l.9 1.2c.3.4.6.8.9 1.3.3.4.6.9.8 1.3l.3.5v-.6c0-1.6-.1-3.2-.1-4.8l-.2.1 1.1 1.9.6.9c0 .3.2.6.4.9z" fill="#1b1b15" stroke-width="none" opacity="1"></path></g></g></g><g id="svga-group-eyebrows-right-move" transform="matrix(1,0,0,1,0,0)"><g id="svga-group-eyebrows-right-rotate" transform="matrix(1,1.7453292519943295e-9,-1.7453292519943295e-9,1,1.2705996255135688e-7,-2.123193070246998e-7)"><g id="svga-group-eyebrows-right"><path id="SvgjsPath19334" d="M107.2 73.2s.9 3.1 2.3 5.5c0 0 14.9-6.1 16.8-6.5 1.9-.4 9 2 9 2l-8.2-6.9-3.6.8.4-.8-7.5 2.7-7.1 2v2.3l-.9-2.2v2.3l-1.2-1.2z" fill="#2a2a25" stroke-width="none" opacity="1"></path><path id="SvgjsPath19335" d="m135.4 74.1-4-3.5c-1.3-1.2-2.7-2.3-4.1-3.5l-.1-.1h-.1l-3 .6.1-.2.4-.7-.8.3c-2.4.8-4.8 1.7-7.2 2.6l-1.8.6-1.8.6-3.7 1.1h-.2v1.5l-.6-1.3-.3-.7v.7l.1 2c-.1-.2-.3-.3-.4-.5-.2-.2-.3-.4-.5-.6l-.1-.1V73.2l.1.2.1.4c.1.2.2.5.2.7.2.5.3.9.5 1.4.3.9.8 1.9 1.2 2.8l.1.2.2-.1c2.1-.8 4.2-1.6 6.4-2.5 2.1-.8 4.2-1.7 6.3-2.5 1.1-.4 2.1-.8 3.2-1.2l.4-.1.4-.1c.3-.1.5-.1.8-.1.6 0 1.1.1 1.7.2 2.2.4 4.4 1.1 6.6 1.8l.6.2-.7-.4zm-8.3-2.1c-.3 0-.6 0-.9.1l-.4.1-.4.1c-1.1.3-2.2.7-3.2 1.1-2.2.8-4.3 1.6-6.4 2.4-2.1.8-4.1 1.7-6.1 2.6-.5-.8-.9-1.7-1.2-2.5-.2-.4-.4-.9-.6-1.4l-.3-.7-.1-.3-.1-.2v-.1c.2.2.3.4.4.6.2.2.3.4.5.7l.2.2V72.8l.6 1.5.4.9v-3.1l3.6-1c1.2-.3 2.5-.7 3.7-1 2.2-.8 4.3-1.5 6.5-2.3v.1l-.3.6.7-.2 3.5-.8c1.3 1.1 2.7 2.2 4 3.3l3.6 2.9c-2-.6-3.9-1.2-6-1.6-.6.1-1.1 0-1.7-.1zm-16 4.7c-.2-.7-.2-1.3-.2-2v-1c0-.3 0-.7.2-1 0 .3.1.7.1 1s.1.7.1 1c-.1.7-.1 1.4-.2 2zm.9-1.5c.1-.3.2-.6.3-.8l.3-.8.6-1.7.2-.4.1.4c.3 1.3.5 2.6.8 3.8h-.3l.6-1.2c.2-.4.4-.8.7-1.1.2-.4.5-.7.7-1.1s.5-.7.8-1c-.3.3-.5.7-.7 1.1-.2.4-.4.7-.7 1.1l-.6 1.2-.6 1.2-.2.4-.1-.4c-.3-1.3-.5-2.6-.8-3.8h.3l-.7 1.6-.4.8c0 .2-.1.4-.3.7z" fill="#1b1b15" stroke-width="none" opacity="1"></path></g></g></g><g id="svga-group-beardwrap"><g id="svga-group-beard-single-move" transform="matrix(1,0,0,1,0,-1)"><g id="svga-group-beard-single" transform="matrix(0.8499994000000002,0,0,0.8499994000000002,14.98673101296842,17.96819492699659)"><path id="SvgjsPath19322" d="M142.1 91.3c-2-4.1-3.8-7.2-4.9-6.9s-1.6 9.7-1.8 12.8-8.1 18.9-10.9 18.9c-3 0-4.2-1.7-5.6-2.6-4.4-2.8-10.6.5-18.5.2-4.6-.2-15-2.8-19.2-.2-2 1.2-3.1 3-6.5 1.8-3.1-1.5-10-13-10.3-17.3s-.8-10.7-1.6-12.5-3 3.6-4.8 7.2c-1.8 3.6-2.6 11.2-3 16.9s-.2 20 14.8 34.3c15 14.3 43.2 12.5 52.9 6.9 11.7-6.8 15.5-12.5 20-25.2 4.6-12.4 1.3-30.2-.6-34.3zm-28.3 44c-2.7 4-14.8 4.4-23.1 1.9-8.3-2.4-9.9-14.3-8.7-17.1 1.2-2.8 13.3-.1 17.9.1 6.6.3 17.1-1.7 17.9 1.4.9 3.2-1.4 9.7-4 13.7z" fill="#2a232b" stroke-width="none" opacity="1"></path><path id="SvgjsPath19323" d="M145.2 111.3c0-.1 0-.1 0 0v-1.4l.3 1.2c0-1.6-.2-3.2-.4-4.9 0-.4-.1-.9-.1-1.3-.2-2.3-.5-4.6-.9-6.9-.4-2.3-.9-4.6-1.9-6.7-.9-1.8-1.7-3.6-2.9-5.3l-.9-1.2c-.2-.2-.4-.3-.6-.4-.2-.1-.6-.2-.8.1-.3.4-.4.9-.5 1.4l-.3 1.5c-.3 2-.4 4-.6 6l-.2 3c0 .5 0 1-.2 1.5-.1.5-.3.9-.4 1.4-1.4 3.7-3.2 7.3-5.3 10.7-1 1.7-2.1 3.4-3.5 4.8-.3.3-.7.7-1.1.9-.1 0-.2.1-.3.1h-.3c-.2 0-.5 0-.7-.1-.9-.1-1.8-.5-2.6-1s-1.5-1.3-2.5-1.8c-.9-.5-2-.8-3-.9-2.1-.2-4.1.1-6.1.4-3.9.6-7.9 1.2-11.8.6-3.9-.5-7.9-1.2-12-1-1 .1-2 .2-3 .5s-2 .8-2.8 1.4c-.8.6-1.6 1.2-2.5 1.4-.9.2-1.8 0-2.8-.2-.9-.5-1.7-1.4-2.5-2.2-.8-.9-1.4-1.8-2.1-2.8-1.3-1.9-2.5-3.9-3.5-6s-2-4.2-2.2-6.5l-.6-6.9c-.1-1.2-.3-2.3-.5-3.5-.1-.6-.2-1.2-.5-1.7-.1-.1-.2-.3-.3-.4-.2-.1-.4 0-.6.1-.3.2-.5.4-.6.7-1.3 2-2.2 4.1-3.2 6.2-1.1 2.1-1.7 4.4-2.1 6.7-.1.3-.1.7-.2 1-.3.8-.6 1.7-.8 2.6.2-.2.3-.5.5-.7-.1.6-.2 1.2-.2 1.8-.1.4-.2.8-.3 1.1-.5 1.9-.8 3.9-.7 5.9.2-.8.4-1.7.6-2.5-.1 1.6-.2 3.1-.2 4.7v1.5c0 .8.1 1.5.2 2.2 0 .2 0 .3.1.5.1.6.2 1.3.3 1.9 0 .2 0 .3.1.4 0 .1 0 .2.1.4.1.4.2.9.3 1.3 0 .2.1.4.1.6.1.5.2.9.4 1.4v.2c.2 2.4.8 4.8 1.8 7-.2-1.1-.5-2.3-.6-3.4.6 1.5 1.2 3 2 4.4.5 1 1.1 2 1.7 3 .2.6.5 1.1.8 1.6.7 1.2 1.4 2.4 2.2 3.4-.3-.6-.6-1.2-.8-1.8.3.4.5.7.8 1 .1.1.1.2.2.3.7.8 1.3 1.6 2 2.4l.2.2c.6.6 1.1 1.2 1.7 1.8l.7.7c.1.1.3.2.4.4.3.2.5.5.8.7.2.2.4.3.6.5.5.4 1 .9 1.6 1.4.6.6 1.4 1 2.1 1.5.7.4 1.4 1 2.2 1.4.7.4 1.4.7 2.1 1.1.9.6 1.8 1.1 2.7 1.6 1.3.6 2.7 1.2 4.1 1.5-.9-.4-1.8-.9-2.6-1.4l2.7.9c.2.1.4.1.6.2.3.1.6.2.9.2.6.1 1.1.3 1.6.4.1 0 .2 0 .3.1.1 0 .2 0 .3.1.6.1 1.1.3 1.7.4l1.6.2.9.1c.4.1.8.1 1.3.2l1.3.1 2.5.2 2.5.1h2.6c.8 0 1.7 0 2.5-.1 1.7-.1 3.4-.2 5.1-.5 3.3-.5 6.7-1.2 9.9-2.5.8-.4 1.6-.8 2.3-1.1l2.2-1.3h.1c-.2.2-.5.5-.8.7 1.3-.8 2.4-1.6 3.6-2.6l.1-.1 1.2-.9c.2-.2.4-.3.6-.5.3-.2.6-.4.8-.7.3-.2.6-.5.8-.7l.6-.6.9-.9c.2-.2.4-.5.7-.7.2-.2.4-.4.6-.7.2-.2.3-.4.5-.6.3-.3.5-.7.8-1 .1-.1.2-.3.3-.4-.1.1-.1.2-.1.3-.7 1.4-1.4 2.7-2.2 4.1 1-1.2 1.9-2.5 2.7-3.8.8-1.3 1.5-2.7 2.1-4.2.1-.3.2-.7.4-1 .6-1.2 1.2-2.4 1.7-3.6.1-.3.2-.6.4-.9.1-.1.1-.2.2-.4s.2-.5.3-.7c-.2.7-.5 1.5-.8 2.2.7-1.1 1.3-2.3 1.8-3.5.5-1.2.9-2.5 1.2-3.8.2-1 .4-1.9.4-2.9.1-.3.1-.6.2-.9 0-.1 0-.2.1-.3 0-.1 0-.2.1-.2-.1 1.8-.3 3.6-.4 5.4.7-2.3 1.1-4.6 1.2-7 .1-1.5 0-3-.1-4.5-.5-1.2-.4-2.3-.4-3.4zM58.4 92.2c1-2.1 1.9-4.3 3.1-6.2.3-.4.8-1 1-.4.2.5.3 1.1.5 1.6.2 1.1.3 2.3.5 3.4l.6 6.9c.2 2.4 1.2 4.5 2.2 6.6 1 2.1 2.2 4.1 3.5 6.1.7 1 1.3 1.9 2.1 2.8.8.9 1.5 1.8 2.6 2.4 1 .3 2 .6 3.1.3 1.1-.2 1.9-.9 2.8-1.5.8-.6 1.6-1.1 2.5-1.3.9-.2 1.9-.4 2.9-.4 3.9-.1 7.9.6 11.8 1.1 4 .6 8.1.1 12-.6 2-.3 3.9-.6 5.9-.4 1 .1 1.9.3 2.7.8.8.4 1.5 1.1 2.4 1.7.8.6 1.9 1 2.9 1.1h.8c.1 0 .3 0 .5-.1.1-.1.3-.1.4-.2.5-.3.9-.7 1.2-1 1.4-1.5 2.4-3.2 3.5-5 2-3.5 3.8-7.1 5.1-10.9.2-.5.3-1 .4-1.5.1-.5.1-1 .1-1.5l.1-3c.1-2 .3-4 .6-6 .1-.5.1-1 .3-1.5.1-.5.2-1 .5-1.4.1-.2.4-.1.6-.1.2.1.4.2.6.4.4.3.7.7.9 1.1 1.1 1.7 2 3.4 2.9 5.2.9 2.1 1.4 4.4 1.8 6.7.4 2 .6 4 .8 6v.3c0-.2-.1-.3-.1-.5-.1-.3-.2-.6-.2-.9-.6-2.2-1.3-4.4-2.4-6.4.6 2.4 1.2 4.8 1.8 7.3.4 1.6.8 3.3 1.1 4.9v2.5c0 .5 0 1-.1 1.5-.1-.2-.1-.5-.1-.8v1.2c-.1-1.5-.3-3-.7-4.5-.1 2.1 0 4.1-.1 6.1 0 1.3 0 2.6-.1 3.9l-.3 2.4c-.1.8-.3 1.6-.4 2.4-.2.7-.4 1.3-.6 2-.7 1.9-1.4 3.8-2.2 5.6.2-1.1.4-2.2.5-3.3h-.1c-.4 1.5-.8 3-1.3 4.4-.3 1-.7 1.9-1 2.9-1.4 2.6-3.1 5.1-5.1 7.3l.6-.9c.8-1.2 1.5-2.5 2.1-3.9-.9 1.2-1.7 2.4-2.6 3.6-.9 1.1-1.8 2.3-2.8 3.4-.4.4-.8.9-1.2 1.3-.8.6-1.6 1.2-2.5 1.8-.9.7-1.9 1.3-2.9 1.9l-1.5.9c-.5.3-1 .5-1.5.8l-.8.4-.8.3-1.6.6c-1.1.3-2.2.7-3.3.9-2.2.5-4.5.8-6.8 1-4.4.4-8.9.3-13.4-.2-.3 0-.6-.1-.9-.1-.2 0-.5-.1-.7-.1-.3-.1-.7-.1-1.1-.2-.7-.1-1.3-.2-1.9-.4-1.2-.2-2.3-.5-3.5-.8-.1 0-.2-.1-.4-.1-.1-.1-.3-.1-.4-.2-2.2-1-4.4-2.1-6.5-3.4.8.8 1.7 1.4 2.6 2.1-.3-.1-.6-.2-.9-.4-.5-.2-1.1-.4-1.6-.7-.1-.1-.2-.1-.4-.2-.9-.7-1.9-1.4-2.8-2.2-1.1-.9-2.1-1.8-3.1-2.8-.4-.5-.8-.9-1.3-1.4.1.1.2.3.2.4-.9-.9-1.8-1.8-2.6-2.8-1-1.2-2-2.4-3-3.7.7 1.4 1.6 2.8 2.6 4 .9 1.3 2 2.5 3.2 3.6.7.6 1.3 1.2 2 1.8 0 .1.1.1.1.1l.4.4c-1.2-.8-2.4-1.7-3.6-2.7.4.3.9.7 1.4 1-1.7-1.8-3.3-3.5-4.9-5.3-.9-1-1.7-2.1-2.6-3.2-1-1.9-1.9-3.9-2.7-5.9 0 .2.1.4.1.6 0 1.4.4 2.8.8 4.1-.7-.9-1.3-1.8-1.8-2.8-.2-.5-.4-1-.5-1.4v-.1l.6.9c-.8-2.2-1.5-4.3-2.1-6.4-.6-2.2-1.1-4.4-1.6-6.6-.1 2.3.3 4.6.9 6.8.2.5.3 1 .5 1.5v.3c.1.6.2 1.1.4 1.6v-.1c-.7-1.5-1.4-3-1.9-4.6v-.1c-.1-.4-.3-.8-.4-1.2 0-.1-.1-.3-.1-.4v-.2c-.2-2.4-.2-4.7-.1-7.2-.4 1.4-.6 2.8-.7 4.3-.6-2.8-.9-5.8-.9-8.7.1-2.2.2-4.4.4-6.6.5-1.9 1.1-3.7 1.7-5.6-.5.8-1 1.6-1.3 2.4 0-.4.1-.7.2-1.1.3-.5.5-1.1.8-1.6.5-1.2 1-2.4 1.2-3.7-.6.8-1.1 1.8-1.6 2.7 0-.1.1-.3.1-.4.5-1.1 1-2.9 1.9-4.6zm26.4 26.4c-.5.1-1 .1-1.5.3-.5.2-1 .4-1.4.9-.3.5-.3 1-.4 1.5-.1.5-.1 1-.1 1.5 0 .8.1 1.6.2 2.3-.1-.6-.3-1.1-.4-1.7 0 .4 0 .8.1 1.3-.2-.5-.4-1-.6-1.6.1 1.2.4 2.5.8 3.7.1.3.1.7.2 1 .3 1.4.8 2.8 1.4 4.2.6 1.4 1.3 2.6 2.2 3.9.8 1.2 1.8 2.3 2.9 3.3-.9-1.2-1.7-2.4-2.4-3.6-.6-1.1-1.2-2.2-1.7-3.3.4.6.8 1.3 1.3 1.9.3.3.6.7.9 1 .1.1.1.1.1.2 1 1.1 2.2 2.1 3.4 3-.5-.5-1-1.1-1.5-1.6.7.4 1.4.7 2.1.9 3.9 1.2 8 1.6 12.1 1.4 2-.1 4.1-.4 6-.9 1-.3 1.9-.6 2.9-1 .9-.5 1.8-1 2.4-1.9 1.1-1.7 2-3.5 2.8-5.4.8-1.9 1.4-3.8 1.7-5.8.1-.5.1-1 .1-1.6 0-.3 0-.5-.1-.8 0-.2-.2-.6-.3-.8-.4-.5-.9-.8-1.4-1-.5-.2-1-.3-1.6-.4-2.1-.3-4.1-.2-6.1-.1l-4.1.2c.1-.6.1-1.2-.1-1.8-.2-.7-.6-1.4-1.2-1.8.1.8.3 1.4.5 2 .2.5.3 1 .6 1.6l-1.7.1c-1 0-2 .1-3 0-.5 0-1-.1-1.5-.1.5-.8.8-1.6.9-2.4.2-.9.2-1.8 0-2.8-.4.9-.5 1.8-.7 2.7-.2.8-.3 1.7-.3 2.6-.4-.1-.9-.1-1.3-.2-2-.2-4-.5-6-.7s-4.2-.4-6.2-.2zm24.1 1.8c2-.1 4-.2 5.9 0 .9.1 2 .3 2.4.9.2.3.3.8.3 1.2v1.5c-.3 3.9-1.8 7.8-3.9 11.2-1.2 1.6-3.3 2.3-5.2 2.7-2 .4-4 .5-6 .5-4-.1-8-.6-11.8-1.6-1.5-.4-2.9-1.2-4.1-2.2-.8-1.1-1.6-2.1-2.3-3.3-.7-1.1-1.3-2.3-1.9-3.6-.5-1.6-.7-3.2-.8-4.9 0-1 .1-2 .5-2.8.2-.3.7-.5 1.2-.7.5-.1.9-.2 1.4-.2 2-.1 4 .2 5.9.4 2 .2 4 .6 6 .8 4.3.8 8.4.4 12.4.1zm-52.2-18.6c-.7 1.3-1 2.8-1.2 4.3-.2 1.5-.2 3 .2 4.4.2-1.5.4-2.9.5-4.3.2-1.5.4-2.9.5-4.4zm21.8 45.8c1.1.9 2.2 1.6 3.3 2.3 1.2.7 2.4 1.3 3.6 1.9s2.5 1 3.8 1.3l-3.6-1.8c-1.2-.6-2.4-1.3-3.5-2-1.2-.7-2.3-1.4-3.4-2.1-1.1-.8-2.2-1.5-3.3-2.3 1 .9 2 1.8 3.1 2.7zM61 126.4c.5 1.3 1 2.5 1.7 3.7.7 1.2 1.4 2.4 2.2 3.4-.6-1.2-1.2-2.4-1.7-3.7-.5-1.2-1-2.5-1.5-3.7-.5-1.3-.9-2.5-1.2-3.8-.4-1.3-.7-2.6-1-3.9 0 1.4.2 2.7.5 4.1.1 1.3.5 2.6 1 3.9zm5.9 8.8c-.6-1.5-1.3-3-1.9-4.5-.6-1.5-1.1-3-1.8-4.6 0 1.7.5 3.3 1.1 4.9.6 1.5 1.4 2.9 2.6 4.2zm3.2 2.3c.5 1.3 1 2.5 1.7 3.7.7 1.2 1.4 2.4 2.2 3.4-.6-1.2-1.2-2.4-1.7-3.7-.5-1.2-1-2.5-1.5-3.7-.5-1.3-.9-2.5-1.2-3.8-.4-1.3-.7-2.6-1-3.9 0 1.4.2 2.7.5 4.1.2 1.3.6 2.6 1 3.9zm5.9 8.7c-.6-1.5-1.3-3-1.9-4.5-.6-1.5-1.1-3-1.8-4.6 0 1.7.4 3.3 1.1 4.9.7 1.5 1.5 3 2.6 4.2zm-20-35.4c0 .7 0 1.5.2 2.2.4-.7.5-1.4.6-2.1 0-.7 0-1.5-.2-2.2-.4.7-.5 1.4-.6 2.1zm27.7 5c1.6-.9 3.4-1.2 5.2-1.8-1.9-.1-3.8.2-5.6 1.1-.9.5-1.6 1.1-2.2 1.9-.6.8-.9 1.8-.9 2.7.2-.9.7-1.7 1.3-2.3.7-.6 1.4-1.2 2.2-1.6zM85 118c1.5-.8 3-1.7 4.5-2.4s3.1-1.3 4.7-2c-1.7.1-3.4.6-5 1.3-1.6.8-3 1.8-4.2 3.1zm6.9.6c.8-.7 1.4-1.3 2.2-1.9.7-.6 1.4-1.2 2.2-1.9-1 .1-1.9.6-2.7 1.3-.8.6-1.4 1.5-1.7 2.5zm25.9-.3c1 1.7 1.6 3.6 1.8 5.6.4-2-.1-4.2-1.1-6-1-1.8-2.6-3.3-4.5-4.1 1.6 1.3 2.8 2.8 3.8 4.5zm4.3 3.4c0-1.5-.4-2.9-1.1-4.2-.7-1.3-1.6-2.5-2.8-3.4.8 1.3 1.5 2.4 2.1 3.7.7 1.2 1.2 2.5 1.8 3.9zm-43.9-1.9c.3-1.5.8-2.9 1.4-4.3-1.1 1.1-1.8 2.6-2.2 4.2-.3 1.6-.2 3.2.4 4.7.1-1.6.1-3.1.4-4.6z" fill="#1b141c" stroke-width="none" opacity="1"></path></g></g></g><g id="svga-group-mustache-single-move" transform="matrix(1,0,0,1,0,-1)"><g id="svga-group-mustache-single" transform="matrix(0.9499998000000001,0,0,0.9499998000000001,5.012519859264373,6.1758643182266155)"><path id="SvgjsPath19649" d="M97.7 116.8c.4 1.2.2 2.1-.7 2.5s-16.1-2.9-17.4-2.6.7 16 0 16c-.6 0-3.1-11.3-2.8-15.6s3-3.2 5.4-3.1 15 1 15.5 2.8zm4.4 0c-.4 1.2-.2 2.1.7 2.5.9.4 16.4-2.9 17.8-2.6s-.5 17.1.3 17.1c.6 0 2.9-12.4 2.6-16.7-.3-4.3-3.1-3.2-5.5-3.1-2.4 0-15.3 1-15.9 2.8z" fill="#2a232b" stroke-width="none" opacity="1"></path><path id="SvgjsPath19650" d="M96.8 116c-.4-.2-.7-.3-1.1-.4-.8-.2-1.5-.4-2.3-.6-1.6-.3-3.1-.6-4.7-.9-1.6-.2-3.2-.4-4.7-.6-.8-.1-1.6-.1-2.4-.2-.8-.1-1.6-.2-2.5-.1-.4.1-.9.2-1.3.4-.4.3-.7.7-.9 1.1-.4.8-.5 1.7-.5 2.5 0 1.7.2 3.2.4 4.8.5 3.2 1.2 6.3 2.1 9.3.1.4.2.8.4 1.1 0 .1.1.1.1.2l.1.1c.1.1.3 0 .3-.1.2-.2.1-.3.1-.4v-.6c0-.8-.1-1.6-.1-2.4l-.3-4.8c-.1-1.6-.1-3.2-.1-4.7 0-.8 0-1.6.2-2.3 0-.2.1-.4.1-.5h.1c.3 0 .7.1 1.1.1 3.1.5 6.2 1.1 9.4 1.5 1.6.2 3.2.4 4.7.6l1.2.1h.6c.2 0 .4-.2.6-.3.3-.3.4-.7.5-1.1 0-.4-.1-.8-.2-1.2-.1-.2-.5-.4-.9-.6zm.6 3c-.1.1-.3.2-.5.2h-.6c-.4 0-.8-.1-1.2-.2-1.6-.3-3.1-.6-4.7-.9-3.1-.7-6.2-1.3-9.4-1.7-.4-.1-.8-.1-1.2-.1H79.5c-.1 0-.1.1-.2.1-.2.2-.2.3-.3.4-.1.2-.1.4-.1.7-.1.8-.1 1.6 0 2.4l.3 4.8c.1 1.6.2 3.2.3 4.7 0 .8.1 1.6 0 2.4v.2c-.1-.2-.2-.5-.2-.7-.8-3.1-1.3-6.2-1.7-9.3-.2-1.6-.3-3.1-.3-4.7.1-.8.1-1.5.4-2.1.3-.6.8-.9 1.5-1 .7-.1 1.5 0 2.3.1.8.1 1.6.1 2.4.1 1.6.1 3.2.2 4.7.3 1.6.1 3.2.3 4.7.5.8.1 1.6.3 2.3.5.4.1.8.2 1.1.4.3.2.7.3.9.7.3.7.4 1.7-.2 2.2zm26.3-3.8c-.2-.4-.4-.9-.8-1.2-.4-.4-.9-.6-1.3-.7-.9-.2-1.8 0-2.6 0-.8.1-1.6.1-2.4.2-1.7.2-3.3.3-4.9.6-1.6.2-3.3.5-4.9.9l-2.4.6c-.4.1-.8.2-1.2.4-.4.2-.8.3-1 .8-.1.4-.2.8-.2 1.2 0 .4.2.9.5 1.1.2.1.4.3.6.2h.6l1.2-.1c1.6-.2 3.3-.4 4.9-.6s3.3-.4 4.9-.7c1.6-.2 3.2-.6 4.9-.8l.6-.1h.3c0 .1.1.2.1.4s.1.4.1.6c.1.8.1 1.6.2 2.4.1 1.6 0 3.3-.1 4.9 0 1.7-.2 3.3-.2 4.9 0 .8-.1 1.6-.1 2.5v.6c0 .1 0 .2.1.4l.1.1c.1.1.3.1.4 0l.2-.2c.2-.4.3-.8.4-1.2.9-3.2 1.5-6.5 2-9.7.2-1.7.4-3.3.4-5-.1-.7-.1-1.6-.4-2.5zm-1 7.5c-.4 3.2-.8 6.5-1.6 9.7-.1.2-.1.5-.2.7v-2.8c.1-1.6.1-3.3.2-4.9.1-1.7.2-3.3.3-4.9V118c0-.2 0-.4-.1-.7-.1-.2-.1-.4-.3-.7-.1-.1-.2-.2-.3-.2h-1.1c-3.3.4-6.5 1-9.8 1.7-1.6.3-3.2.7-4.8 1-.4.1-.8.1-1.2.2-.4 0-.8.1-1.1-.2-.3-.2-.5-.6-.5-1s.1-.8.2-1.2c.2-.3.6-.5.9-.7.4-.2.8-.3 1.2-.4.8-.2 1.6-.4 2.4-.5 1.6-.2 3.3-.4 4.9-.5 1.6-.1 3.3-.2 4.9-.3.8 0 1.6-.1 2.5-.1.8-.1 1.6-.2 2.3 0 .7.1 1.1.6 1.4 1.2s.3 1.5.3 2.3c-.2 1.5-.4 3.2-.5 4.8z" fill="#1b141c" stroke-width="none" opacity="1"></path></g></g><g id="svga-group-nose-single-move" transform="matrix(1,0,0,1,0,0)"><g id="svga-group-nose-single"><path id="SvgjsPath19885" d="M109.5 107.91c-1.24.49-2.69.36-3.82.07s-2.48.69-2.95 1.13c-.47.44-1.71 1.71-3.93.91-2.22-.8-2.15-1.57-3.35-1.86-1.2-.29-2.07.66-3.42.29-1.35-.36-1.97-1.38-1.86-2.8.11-1.42.82-3.92 1.48-4.96s10.31-4.3 17.37.43c0 0 1.49 2.39 1.46 4.32s-.14 2.14-.98 2.47z" fill="#fec6ae" stroke-width="none" opacity="1" stroke="none"></path><path id="SvgjsPath19886" d="M91.66 100.69c-.5 1.38-.97 2.79-1.14 4.22-.08.7-.12 1.45.12 2.05l.09.22c.04.07.09.13.13.2.04.07.09.13.15.19.06.05.1.12.16.16.23.21.53.32.83.39.63.13 1.33.02 2.02-.13l.53-.12.28-.06.15-.03.18-.02c.49-.03.91.14 1.27.31.73.36 1.3.86 1.88 1.29l.21.16c.07.04.12.08.19.12.13.07.27.13.42.17.3.09.63.13.95.12.64-.01 1.28-.21 1.77-.6l.17-.16.21-.2c.14-.13.29-.26.45-.38.31-.24.64-.46 1.01-.64.36-.17.75-.31 1.17-.37a2.43 2.43 0 0 1 1 .07l.29.11c.25.1.61.15.95.17.34.02.69.01 1.04-.03.68-.08 1.4-.27 1.8-.7.19-.19.27-.52.31-.86.04-.34.03-.69-.01-1.05-.14-1.43-.62-2.84-1.24-4.17.8 1.24 1.38 2.63 1.68 4.11.07.37.1.76.09 1.15-.02.39-.08.82-.37 1.2-.28.35-.66.56-1.03.71-.37.15-.75.24-1.14.31-.38.07-.77.09-1.16.09-.4-.01-.78-.04-1.22-.19l-.22-.08c-.07-.01-.13-.03-.2-.03-.14-.02-.29 0-.44.02-.3.05-.61.17-.91.32-.29.16-.58.34-.85.56-.13.11-.26.22-.39.34l-.19.18-.24.21c-.66.54-1.5.8-2.32.82-.41.01-.83-.05-1.23-.17-.2-.06-.4-.15-.59-.25-.09-.05-.19-.12-.28-.18l-.23-.17c-.59-.45-1.15-.92-1.73-1.23-.29-.15-.59-.26-.84-.25h-.09l-.12.02-.26.05-.55.11c-.74.14-1.54.25-2.35.04-.4-.11-.8-.29-1.11-.6-.3-.31-.55-.64-.66-1.06-.25-.8-.14-1.58 0-2.32.16-.74.39-1.45.66-2.14.29-.68.6-1.35.95-2z" fill="#d07750" stroke-width="none" opacity="1" stroke="none"></path><path id="SvgjsPath19887" d="M102.11 103.91c-.52-.52-1.24-.61-1.94-.46-.09.02-.17.04-.25.06-.29-.19-.59-.32-.98-.32-.43 0-.95.19-1.25.52-.67.73-.68 1.78 0 2.5 1.14 1.22 3.69 1.57 4.66-.08.4-.68.33-1.65-.24-2.22z" fill="#ffd0bb" stroke-width="none" opacity="1" stroke="none"></path></g></g><g id="svga-group-hair-front"></g><g id="svga-group-glasses-single-move" transform="matrix(1,0,0,1,0,0)"><g id="svga-group-glasses-single"><path id="SvgjsPath19590" d="M62.5 82c-1 1 .1 5.6 1.5 9.5 1.4 3.9 2.3 6.4 5 7.4s9.7 1.9 16.8 1.2c7.1-.7 7.3-2.6 8.1-3.9.8-1.3 2.9-8.9 2.9-10.8 0-1.9-3.4-2.7-5.4-3.1-2-.3-12.6-1.2-18-1.6-5.4-.3-9.7 0-10.9 1.3z" fill="url(#SvgjsLinearGradient19591)" opacity="1"></path><path id="SvgjsPath19595" d="M136.8 82.2c1.1 1 .7 5.4 0 9.3-.8 3.8-1.3 6.2-3.7 7.2s-9.1 2-16.1 1.3c-7.1-.7-7.5-2.5-8.6-3.8-1-1.3-4.2-8.8-4.5-10.8-.3-1.9 3-2.7 4.9-3 1.9-.3 12.2-1.1 17.4-1.5 5.1-.3 9.2 0 10.6 1.3z" fill="url(#SvgjsLinearGradient19596)" opacity="1"></path><path id="SvgjsPath19600" d="M139.5 81.2c-.7-.6-3.9-.7-7.9-.9-3.8-.2-15.4 0-22.2 1.2-3.9.7-7 1.4-8.5 1.4h-1.6c-1.5 0-4.7-.8-8.8-1.5-7.1-1.2-19-1.5-23-1.3-4.1.2-7.4.3-8.1.9-.6.6.6 4.2 1 4.9.4.8.7.6 1.2 1.1.4.5 1.7 6.1 3 8.8 1.3 2.8 2.8 4.5 10.6 5 7.8.6 14.4-.4 16.9-1.5 2.4-1.1 3.9-6 4.2-7.6.4-1.6.8-3.3 1.1-4.1.3-.8 2.1-1.4 2.1-1.4h1.5s1.8.6 2.3 1.4c.5.8 1.2 2.5 1.7 4.1.6 1.6 2.8 6.4 5.3 7.5 2.6 1.1 9.2 2 16.7 1.4 7.5-.6 8.6-2.3 9.5-5 .9-2.7 1.3-8.2 1.6-8.6.3-.5.7-.3.9-1.1.5-.6 1.2-4.1.5-4.7zm-43.9 6.4c-.6 4.4-2.3 9.2-3.7 10.3-2.1 1.8-11.3 2.3-16.6 1.8-5.3-.6-7.9-1.3-9.5-4.8-1.6-3.5-2.9-9.1-2.8-10.8.1-1.7 1.5-2.7 5.7-2.7s8.3.1 13.6.4c5.3.3 9.3 1.1 11.4 2.1 2.1.9 2.1 2.2 1.9 3.7zm39.9 7.2c-1 3.4-3.4 4.2-8.4 4.7-5.1.6-14.2.1-16.5-1.7-1.5-1.2-3.9-5.9-5.2-10.2-.4-1.5-.5-2.8 1.4-3.7 1.9-.9 5.8-1.7 10.9-2 5.1-.3 9.1-.3 13.1-.3s5.6 1 5.9 2.6c.2 1.7-.2 7.2-1.2 10.6z" fill="#322b29" stroke-width="none" opacity="1"></path><path id="SvgjsPath19601" d="M139.5 81.2c-.6-.4-1.4-.4-2.1-.5-.7-.1-1.5-.1-2.2-.2-1.5-.1-2.9-.2-4.4-.2-2.9-.1-5.9 0-8.9.1-2.9.1-5.9.3-8.8.7-2.9.3-5.8.9-8.7 1.5-.7.1-1.5.3-2.2.4-.7.1-1.5.1-2.2.1-1.5 0-3-.3-4.4-.6-2.9-.6-5.8-1.2-8.7-1.4-5.9-.6-11.8-.9-17.7-.9-1.5 0-2.9.1-4.4.2-1.5.1-3 .1-4.4.5-.3.1-.7.2-.8.6 0 .3 0 .7.1 1.1.1.7.3 1.4.6 2.1.1.3.2.7.4 1 .1.3.3.7.6.9s.7.4.8.8c.2.3.3.7.4 1.1l1.3 4.2c.5 1.4.9 2.8 1.6 4.1.3.6.8 1.2 1.3 1.7s1.2.8 1.8 1.1c1.3.6 2.8.8 4.3 1 2.9.4 5.9.5 8.8.4 2.9-.1 5.9-.3 8.7-1 .7-.2 1.4-.4 2-.7.6-.3 1.1-.9 1.5-1.4.8-1.2 1.4-2.5 1.9-3.9s.7-2.8 1.1-4.3c.1-.4.2-.7.3-1.1.1-.4.2-.7.5-1.1.6-.6 1.3-.9 2-1.2h1.5c.6.2 1.2.5 1.8.9.3.2.5.4.7.8.2.3.3.6.4.9.5 1.2 1 2.3 1.4 3.5.5 1.2 1 2.3 1.7 3.3.6 1.1 1.3 2.1 2.2 2.9.9.9 2.1 1.1 3.3 1.4 1.2.3 2.4.5 3.7.6 2.5.3 5 .4 7.5.3 2.5-.1 5-.2 7.4-.7 1.2-.3 2.4-.6 3.4-1.4 1-.7 1.6-1.9 1.9-3.1.7-2.4.9-4.9 1.3-7.4.1-.3.1-.6.2-.9.1-.3.4-.5.7-.7.4-.4.5-1.1.6-1.7.1-.6.2-1.2.3-1.9.1-.7.2-1.4-.1-1.9zm0 0c.2.2.3.6.3.9v.9c0 .6-.1 1.2-.2 1.9-.1.3-.1.6-.2.9-.1.3-.2.6-.5.8-.2.2-.5.3-.6.6-.1.3-.1.6-.2.9-.4 2.5-.6 5-1.3 7.4-.3 1.2-.9 2.4-1.9 3.2-1 .8-2.3 1.2-3.5 1.4-2.5.5-5 .7-7.5.8-2.5.1-5 0-7.5-.2-1.2-.1-2.5-.3-3.7-.6-.6-.1-1.2-.3-1.8-.5-.6-.2-1.2-.6-1.7-1-1-.9-1.7-1.9-2.3-3-.6-1.1-1.2-2.2-1.7-3.4-.5-1.2-.9-2.3-1.4-3.5-.1-.3-.3-.6-.4-.8-.1-.2-.3-.4-.6-.6-.5-.3-1.1-.6-1.6-.8h.1-1.5.1c-.7.2-1.3.6-1.8 1.1-.2.2-.3.6-.4.9-.1.3-.2.7-.3 1.1-.4 1.4-.6 2.9-1.1 4.3-.5 1.4-1.1 2.8-1.9 4-.4.6-1 1.2-1.7 1.6-.7.4-1.4.6-2.1.7-2.9.7-5.9.9-8.8 1-3 .1-5.9-.1-8.9-.5-1.5-.2-2.9-.5-4.3-1.1-.7-.3-1.3-.7-1.9-1.2-.6-.5-1-1.1-1.4-1.8-.7-1.3-1.2-2.7-1.6-4.1l-1.3-4.2c-.1-.3-.2-.7-.4-1-.1-.3-.5-.5-.8-.7-.3-.2-.5-.6-.7-.9-.1-.3-.3-.7-.4-1-.2-.7-.4-1.4-.6-2.2-.1-.4-.1-.7-.1-1.1 0-.2.1-.4.3-.5.2-.1.3-.2.5-.2 1.5-.3 2.9-.4 4.4-.5 1.5-.1 2.9-.2 4.4-.2 5.9-.1 11.8.2 17.7.8 2.9.3 5.9.8 8.8 1.4 2.9.6 5.8.8 8.7.1 2.9-.5 5.8-1.1 8.8-1.4 2.9-.3 5.9-.5 8.9-.6 3-.1 5.9-.2 8.9-.1 1.5.1 2.9.2 4.4.3.7.1 1.5.1 2.2.2.7.1 1.4.1 2.1.5zm-43.8 6.4c-.2 1.8-.7 3.6-1.2 5.3-.3.9-.6 1.7-.9 2.6-.4.8-.7 1.7-1.4 2.4s-1.6.9-2.5 1.2l-2.7.6c-1.8.3-3.6.4-5.4.4-3.6.1-7.3-.2-10.9-1-.9-.2-1.7-.6-2.5-1.1-.8-.5-1.4-1.2-1.9-2-.9-1.6-1.5-3.3-2-5.1-.5-1.7-1-3.5-1.3-5.3-.1-.5-.1-.9-.1-1.4 0-.5.1-1 .4-1.4.6-.8 1.6-1.1 2.5-1.3 1.8-.4 3.7-.2 5.5-.2l5.4.2c1.8.1 3.6.1 5.4.2 1.8.1 3.6.3 5.4.6 1.8.3 3.6.7 5.3 1.3.8.3 1.7.7 2.3 1.4.7.7.7 1.7.6 2.6zm-.1 0c.1-.9.1-1.9-.4-2.6-.6-.7-1.4-1.1-2.3-1.3-1.7-.6-3.5-.9-5.3-1.1-1.8-.2-3.6-.4-5.4-.5-1.8 0-3.6-.1-5.4-.1l-5.4-.2c-1.8-.1-3.6-.2-5.4.1-.9.2-1.7.4-2.2 1.1-.5.7-.4 1.6-.3 2.5.2 1.8.7 3.6 1.2 5.3.5 1.7 1.1 3.5 1.9 5.1.5.8 1.1 1.5 1.8 1.9.7.5 1.6.8 2.5 1 3.5.8 7.2 1 10.8.8 1.8-.1 3.6-.2 5.4-.5.9-.1 1.8-.3 2.7-.5.8-.2 1.8-.5 2.4-1 .6-.6 1-1.4 1.4-2.2.4-.8.7-1.7 1-2.5.3-1.7.7-3.5 1-5.3zm39.9 7.2c-.2.8-.6 1.7-1.2 2.4s-1.4 1.1-2.2 1.4c-1.7.6-3.5.9-5.2 1.1-3.5.4-7.1.3-10.7-.1-1.8-.2-3.5-.5-5.2-1.3-.8-.4-1.4-1.2-1.9-1.9-.5-.8-.9-1.5-1.3-2.3-.8-1.6-1.5-3.2-2.1-4.9-.3-.8-.6-1.7-.7-2.6-.1-.4-.1-.9.1-1.4s.5-.8.9-1.1c1.6-.9 3.3-1.3 5.1-1.7 1.8-.3 3.5-.6 5.3-.7 3.6-.2 7.1-.2 10.6-.3l2.7-.1c.9 0 1.8 0 2.7.1.9.1 1.8.2 2.6.7.8.4 1.6 1.2 1.7 2.1.2 1.8 0 3.6-.2 5.3-.2 1.9-.5 3.6-1 5.3zm0 0c.5-1.7.7-3.5.9-5.2.1-1.8.3-3.6.1-5.3-.1-.8-.8-1.5-1.6-1.8-.8-.3-1.6-.5-2.5-.5-1.7-.1-3.5 0-5.3 0l-5.3.1c-1.8.1-3.5 0-5.3.2-1.8.1-3.5.3-5.3.6-1.7.3-3.5.7-5 1.5-.4.2-.7.5-.8.9-.2.4-.2.8-.1 1.2.1.8.4 1.7.7 2.5.6 1.7 1.2 3.3 2.1 4.9.4.8.8 1.6 1.3 2.3.5.7 1 1.4 1.8 1.8 1.6.7 3.4.9 5.1 1.2 3.5.4 7.1.5 10.6.2 1.8-.2 3.5-.3 5.2-.9.8-.3 1.6-.7 2.2-1.4.6-.6.9-1.4 1.2-2.3z" fill="#130e0c" stroke-width="none" opacity="1"></path></g></g></g></g></g><rect id="svga-credit-rect" width="200" height="15" x="0" y="185" fill="#ecf0f1" opacity="0.5" style="display: none;"></rect><text id="svga-credit-text" font-family="Avenir Next, Roboto, Helvetica, Arial, sans-serif" font-size="10px" text-anchor="start" font-weight="400" size="10px" anchor="start" weight="400" fill="#333333" x="33.40447998046875" y="182.60824704170227" style="display: none;"><tspan id="SvgjsTspan19321" dy="13" x="33.40447998046875">Created on AvatarMaker.com</tspan></text></g><defs id="SvgjsDefs19268"><linearGradient id="SvgjsLinearGradient19591" x1="79.4739" y1="121.3709" x2="79.4739" y2="101.6175" gradientTransform="matrix(1 0 0 -1 0 202)" gradientUnits="userSpaceOnUse" class="svga-on-canvas-glasses-gradient-single-0-null"><stop id="SvgjsStop19592" stop-opacity="1" stop-color="#bfeaf2" offset="0" ></stop><stop id="SvgjsStop19593" stop-opacity="0.649" stop-color="#a1cae3" offset="0.351" ></stop><stop id="SvgjsStop19594" stop-opacity="0" stop-color="#6086c4" offset="1" ></stop></linearGradient><linearGradient id="SvgjsLinearGradient19596" x1="-1738.6592" y1="121.1959" x2="-1738.6592" y2="101.7599" gradientTransform="matrix(-1 0 0 -1 -1618 202)" gradientUnits="userSpaceOnUse" class="svga-on-canvas-glasses-gradient-single-1-null"><stop id="SvgjsStop19597" stop-opacity="1" stop-color="#bfeaf2" offset="0" ></stop><stop id="SvgjsStop19598" stop-opacity="0.649" stop-color="#a1cae3" offset="0.351" ></stop><stop id="SvgjsStop19599" stop-opacity="0" stop-color="#6086c4" offset="1" ></stop></linearGradient><linearGradient id="SvgjsLinearGradient19663" x1="100.0394" y1="79.6722" x2="100.0394" y2="122.2396" gradientUnits="userSpaceOnUse" class="svga-on-canvas-nose-gradient-single-0-null"><stop id="SvgjsStop19664" stop-opacity="0" stop-color="#ffd9c8" offset="0" ></stop><stop id="SvgjsStop19665" stop-opacity="0.9727" stop-color="#fec6ae" offset="0.7584" ></stop><stop id="SvgjsStop19666" stop-opacity="0.9769" stop-color="#f6b79c" offset="0.7953" ></stop><stop id="SvgjsStop19667" stop-opacity="0.9852" stop-color="#efa98c" offset="0.8691" ></stop><stop id="SvgjsStop19668" stop-opacity="0.9968" stop-color="#df8f6c" offset="0.972" ></stop><stop id="SvgjsStop19669" stop-opacity="1" stop-color="#d07750" offset="1" ></stop></linearGradient><linearGradient id="SvgjsLinearGradient19837" x1="100.2671" y1="81.0612" x2="100.2671" y2="115.12" gradientUnits="userSpaceOnUse" class="svga-on-canvas-nose-gradient-single-0-null"><stop id="SvgjsStop19838" stop-opacity="0" stop-color="#f6b79c" offset="0" ></stop><stop id="SvgjsStop19839" stop-opacity="1" stop-color="#df8f6c" offset="1" ></stop></linearGradient></defs></svg>